<mxfile host="65bd71144e">
    <diagram id="NoSYB3JrhJ4rGggz1AVn" name="Page-1">
        <mxGraphModel dx="1113" dy="634" grid="1" gridSize="10" guides="1" tooltips="1" connect="1" arrows="1" fold="1" page="1" pageScale="1" pageWidth="850" pageHeight="1100" math="0" shadow="0">
            <root>
                <mxCell id="0"/>
                <mxCell id="1" parent="0"/>
                <mxCell id="2" value="" style="endArrow=none;html=1;" parent="1" edge="1">
                    <mxGeometry width="50" height="50" relative="1" as="geometry">
                        <mxPoint x="145" y="579.31" as="sourcePoint"/>
                        <mxPoint x="145" y="259.31" as="targetPoint"/>
                    </mxGeometry>
                </mxCell>
                <mxCell id="3" value="" style="endArrow=none;html=1;" parent="1" edge="1">
                    <mxGeometry width="50" height="50" relative="1" as="geometry">
                        <mxPoint x="725" y="580" as="sourcePoint"/>
                        <mxPoint x="725" y="260" as="targetPoint"/>
                    </mxGeometry>
                </mxCell>
                <mxCell id="4" value="" style="endArrow=none;html=1;" parent="1" edge="1">
                    <mxGeometry width="50" height="50" relative="1" as="geometry">
                        <mxPoint x="145" y="580" as="sourcePoint"/>
                        <mxPoint x="725" y="580" as="targetPoint"/>
                    </mxGeometry>
                </mxCell>
                <mxCell id="5" value="" style="endArrow=none;html=1;" parent="1" edge="1">
                    <mxGeometry width="50" height="50" relative="1" as="geometry">
                        <mxPoint x="145" y="260" as="sourcePoint"/>
                        <mxPoint x="725" y="260" as="targetPoint"/>
                    </mxGeometry>
                </mxCell>
                <mxCell id="6" value="" style="endArrow=none;html=1;entryX=0.001;entryY=0.077;entryDx=0;entryDy=0;entryPerimeter=0;" parent="1" edge="1" target="35">
                    <mxGeometry width="50" height="50" relative="1" as="geometry">
                        <mxPoint x="105" y="279.31" as="sourcePoint"/>
                        <mxPoint x="145" y="279.31" as="targetPoint"/>
                    </mxGeometry>
                </mxCell>
                <mxCell id="7" value="" style="endArrow=none;html=1;" parent="1" edge="1">
                    <mxGeometry width="50" height="50" relative="1" as="geometry">
                        <mxPoint x="105" y="299.31" as="sourcePoint"/>
                        <mxPoint x="155" y="299" as="targetPoint"/>
                    </mxGeometry>
                </mxCell>
                <mxCell id="8" value="" style="endArrow=none;html=1;entryX=0;entryY=0.75;entryDx=0;entryDy=0;" parent="1" edge="1" target="35">
                    <mxGeometry width="50" height="50" relative="1" as="geometry">
                        <mxPoint x="105" y="319.31" as="sourcePoint"/>
                        <mxPoint x="145" y="319.31" as="targetPoint"/>
                    </mxGeometry>
                </mxCell>
                <mxCell id="9" value="Entry Sensor" style="text;html=1;strokeColor=none;fillColor=none;align=center;verticalAlign=middle;whiteSpace=wrap;rounded=0;" parent="1" vertex="1">
                    <mxGeometry x="55" y="240" width="80" height="30" as="geometry"/>
                </mxCell>
                <mxCell id="10" value="Exit Sensor" style="text;html=1;strokeColor=none;fillColor=none;align=center;verticalAlign=middle;whiteSpace=wrap;rounded=0;" parent="1" vertex="1">
                    <mxGeometry x="25" y="279.31" width="80" height="30" as="geometry"/>
                </mxCell>
                <mxCell id="11" value="Exit Place" style="text;html=1;strokeColor=none;fillColor=none;align=center;verticalAlign=middle;whiteSpace=wrap;rounded=0;" parent="1" vertex="1">
                    <mxGeometry x="35" y="330" width="80" height="30" as="geometry"/>
                </mxCell>
                <mxCell id="12" value="&lt;font style=&quot;font-size: 10px;&quot;&gt;2'b&lt;/font&gt;" style="text;html=1;strokeColor=none;fillColor=none;align=center;verticalAlign=middle;whiteSpace=wrap;rounded=0;" parent="1" vertex="1">
                    <mxGeometry x="115" y="319.31" width="30" height="30" as="geometry"/>
                </mxCell>
                <mxCell id="21" value="" style="endArrow=none;html=1;fontSize=12;" parent="1" edge="1">
                    <mxGeometry width="50" height="50" relative="1" as="geometry">
                        <mxPoint x="205" y="320" as="sourcePoint"/>
                        <mxPoint x="345" y="320" as="targetPoint"/>
                    </mxGeometry>
                </mxCell>
                <mxCell id="22" value="" style="endArrow=none;html=1;fontSize=12;" parent="1" edge="1">
                    <mxGeometry width="50" height="50" relative="1" as="geometry">
                        <mxPoint x="205" y="300" as="sourcePoint"/>
                        <mxPoint x="375" y="300" as="targetPoint"/>
                    </mxGeometry>
                </mxCell>
                <mxCell id="23" value="" style="endArrow=none;html=1;fontSize=12;" parent="1" edge="1">
                    <mxGeometry width="50" height="50" relative="1" as="geometry">
                        <mxPoint x="205" y="280" as="sourcePoint"/>
                        <mxPoint x="405" y="280" as="targetPoint"/>
                    </mxGeometry>
                </mxCell>
                <mxCell id="24" value="" style="endArrow=none;html=1;fontSize=12;exitX=0.221;exitY=-0.008;exitDx=0;exitDy=0;exitPerimeter=0;" parent="1" source="HhYrrEAUZPunbD4YtjZk-76" edge="1">
                    <mxGeometry width="50" height="50" relative="1" as="geometry">
                        <mxPoint x="345" y="380" as="sourcePoint"/>
                        <mxPoint x="345" y="320" as="targetPoint"/>
                    </mxGeometry>
                </mxCell>
                <mxCell id="26" value="" style="endArrow=none;html=1;fontSize=12;exitX=0.5;exitY=0;exitDx=0;exitDy=0;" parent="1" source="HhYrrEAUZPunbD4YtjZk-76" edge="1">
                    <mxGeometry width="50" height="50" relative="1" as="geometry">
                        <mxPoint x="375" y="340" as="sourcePoint"/>
                        <mxPoint x="375" y="300" as="targetPoint"/>
                    </mxGeometry>
                </mxCell>
                <mxCell id="27" value="" style="shape=or;whiteSpace=wrap;html=1;fontSize=12;rotation=-180;" parent="1" vertex="1">
                    <mxGeometry x="85" y="499.31" width="30" height="20" as="geometry"/>
                </mxCell>
                <mxCell id="28" value="" style="shape=or;whiteSpace=wrap;html=1;fontSize=12;rotation=-180;" parent="1" vertex="1">
                    <mxGeometry x="85" y="529.31" width="30" height="20" as="geometry"/>
                </mxCell>
                <mxCell id="29" value="Door Open" style="text;html=1;strokeColor=none;fillColor=none;align=center;verticalAlign=middle;whiteSpace=wrap;rounded=0;fontSize=12;" parent="1" vertex="1">
                    <mxGeometry x="25" y="469.31" width="80" height="30" as="geometry"/>
                </mxCell>
                <mxCell id="30" value="Full" style="text;html=1;strokeColor=none;fillColor=none;align=center;verticalAlign=middle;whiteSpace=wrap;rounded=0;fontSize=12;" parent="1" vertex="1">
                    <mxGeometry x="25" y="525" width="80" height="30" as="geometry"/>
                </mxCell>
                <mxCell id="31" value="" style="endArrow=none;html=1;fontSize=12;exitX=0;exitY=0.5;exitDx=0;exitDy=0;exitPerimeter=0;" parent="1" source="27" edge="1">
                    <mxGeometry width="50" height="50" relative="1" as="geometry">
                        <mxPoint x="345" y="479.31" as="sourcePoint"/>
                        <mxPoint x="145" y="509.31" as="targetPoint"/>
                    </mxGeometry>
                </mxCell>
                <mxCell id="32" value="" style="endArrow=none;html=1;fontSize=12;exitX=0;exitY=0.5;exitDx=0;exitDy=0;exitPerimeter=0;" parent="1" edge="1">
                    <mxGeometry width="50" height="50" relative="1" as="geometry">
                        <mxPoint x="115" y="539.02" as="sourcePoint"/>
                        <mxPoint x="145" y="539.02" as="targetPoint"/>
                    </mxGeometry>
                </mxCell>
                <mxCell id="33" value="" style="shape=or;whiteSpace=wrap;html=1;fontSize=12;rotation=-180;" parent="1" vertex="1">
                    <mxGeometry x="205" y="520" width="30" height="40" as="geometry"/>
                </mxCell>
                <mxCell id="34" value="" style="endArrow=none;html=1;fontSize=12;" parent="1" edge="1">
                    <mxGeometry width="50" height="50" relative="1" as="geometry">
                        <mxPoint x="145" y="540" as="sourcePoint"/>
                        <mxPoint x="205" y="540" as="targetPoint"/>
                    </mxGeometry>
                </mxCell>
                <mxCell id="HhYrrEAUZPunbD4YtjZk-50" value="" style="verticalLabelPosition=bottom;shadow=0;dashed=0;align=center;html=1;verticalAlign=top;shape=mxgraph.electrical.logic_gates.inverter_2;rotation=90;" parent="1" vertex="1">
                    <mxGeometry x="235" y="399.31" width="40" height="30" as="geometry"/>
                </mxCell>
                <mxCell id="HhYrrEAUZPunbD4YtjZk-53" value="" style="curved=1;endArrow=none;html=1;rounded=0;endFill=0;" parent="1" edge="1">
                    <mxGeometry width="50" height="50" relative="1" as="geometry">
                        <mxPoint x="254.31" y="330" as="sourcePoint"/>
                        <mxPoint x="254.31" y="310" as="targetPoint"/>
                        <Array as="points">
                            <mxPoint x="225" y="320"/>
                        </Array>
                    </mxGeometry>
                </mxCell>
                <mxCell id="HhYrrEAUZPunbD4YtjZk-54" value="" style="endArrow=none;html=1;rounded=0;" parent="1" edge="1">
                    <mxGeometry width="50" height="50" relative="1" as="geometry">
                        <mxPoint x="254.31" y="399.31" as="sourcePoint"/>
                        <mxPoint x="254.31" y="329.31" as="targetPoint"/>
                    </mxGeometry>
                </mxCell>
                <mxCell id="HhYrrEAUZPunbD4YtjZk-55" value="" style="endArrow=none;html=1;rounded=0;" parent="1" edge="1">
                    <mxGeometry width="50" height="50" relative="1" as="geometry">
                        <mxPoint x="255" y="309.31" as="sourcePoint"/>
                        <mxPoint x="255" y="299.31" as="targetPoint"/>
                    </mxGeometry>
                </mxCell>
                <mxCell id="HhYrrEAUZPunbD4YtjZk-56" value="" style="endArrow=none;html=1;rounded=0;entryX=1;entryY=0.5;entryDx=0;entryDy=0;entryPerimeter=0;" parent="1" target="HhYrrEAUZPunbD4YtjZk-50" edge="1">
                    <mxGeometry width="50" height="50" relative="1" as="geometry">
                        <mxPoint x="255" y="529.31" as="sourcePoint"/>
                        <mxPoint x="465" y="379.31" as="targetPoint"/>
                    </mxGeometry>
                </mxCell>
                <mxCell id="HhYrrEAUZPunbD4YtjZk-57" value="" style="endArrow=none;html=1;rounded=0;exitX=0;exitY=0.75;exitDx=0;exitDy=0;exitPerimeter=0;" parent="1" source="33" edge="1">
                    <mxGeometry width="50" height="50" relative="1" as="geometry">
                        <mxPoint x="245" y="529.31" as="sourcePoint"/>
                        <mxPoint x="255" y="529.31" as="targetPoint"/>
                    </mxGeometry>
                </mxCell>
                <mxCell id="HhYrrEAUZPunbD4YtjZk-58" value="" style="endArrow=none;html=1;rounded=0;" parent="1" edge="1">
                    <mxGeometry width="50" height="50" relative="1" as="geometry">
                        <mxPoint x="285" y="540" as="sourcePoint"/>
                        <mxPoint x="285" y="280" as="targetPoint"/>
                    </mxGeometry>
                </mxCell>
                <mxCell id="HhYrrEAUZPunbD4YtjZk-59" value="" style="endArrow=none;html=1;rounded=0;exitX=0;exitY=0.5;exitDx=0;exitDy=0;exitPerimeter=0;" parent="1" source="33" edge="1">
                    <mxGeometry width="50" height="50" relative="1" as="geometry">
                        <mxPoint x="405" y="430" as="sourcePoint"/>
                        <mxPoint x="285" y="540" as="targetPoint"/>
                    </mxGeometry>
                </mxCell>
                <mxCell id="HhYrrEAUZPunbD4YtjZk-60" value="&lt;span style=&quot;background-color: rgb(42, 37, 47);&quot;&gt;4 LED&lt;/span&gt;&lt;br style=&quot;background-color: rgb(42, 37, 47);&quot;&gt;&lt;span style=&quot;background-color: rgb(42, 37, 47);&quot;&gt;On Park Spots&lt;/span&gt;" style="rounded=0;whiteSpace=wrap;html=1;rotation=0;" parent="1" vertex="1">
                    <mxGeometry x="765" y="360" width="60" height="160" as="geometry"/>
                </mxCell>
                <mxCell id="HhYrrEAUZPunbD4YtjZk-61" value="" style="endArrow=none;html=1;rounded=0;entryX=0;entryY=0.5;entryDx=0;entryDy=0;exitX=1;exitY=0.5;exitDx=0;exitDy=0;" parent="1" source="HhYrrEAUZPunbD4YtjZk-76" target="HhYrrEAUZPunbD4YtjZk-60" edge="1">
                    <mxGeometry width="50" height="50" relative="1" as="geometry">
                        <mxPoint x="465" y="420" as="sourcePoint"/>
                        <mxPoint x="685" y="390" as="targetPoint"/>
                    </mxGeometry>
                </mxCell>
                <mxCell id="HhYrrEAUZPunbD4YtjZk-62" value="&lt;font style=&quot;font-size: 10px;&quot;&gt;4'b&lt;/font&gt;" style="text;html=1;strokeColor=none;fillColor=none;align=center;verticalAlign=middle;whiteSpace=wrap;rounded=0;" parent="1" vertex="1">
                    <mxGeometry x="430" y="410" width="30" height="30" as="geometry"/>
                </mxCell>
                <mxCell id="HhYrrEAUZPunbD4YtjZk-63" value="" style="endArrow=none;html=1;rounded=0;" parent="1" edge="1">
                    <mxGeometry width="50" height="50" relative="1" as="geometry">
                        <mxPoint x="485" y="550" as="sourcePoint"/>
                        <mxPoint x="485" y="440" as="targetPoint"/>
                    </mxGeometry>
                </mxCell>
                <mxCell id="HhYrrEAUZPunbD4YtjZk-64" value="" style="endArrow=none;html=1;rounded=0;exitX=0;exitY=0.25;exitDx=0;exitDy=0;exitPerimeter=0;" parent="1" source="33" edge="1">
                    <mxGeometry width="50" height="50" relative="1" as="geometry">
                        <mxPoint x="395" y="440" as="sourcePoint"/>
                        <mxPoint x="485" y="550" as="targetPoint"/>
                    </mxGeometry>
                </mxCell>
                <mxCell id="HhYrrEAUZPunbD4YtjZk-65" value="" style="endArrow=none;html=1;rounded=0;" parent="1" edge="1">
                    <mxGeometry width="50" height="50" relative="1" as="geometry">
                        <mxPoint x="145" y="510" as="sourcePoint"/>
                        <mxPoint x="245" y="510" as="targetPoint"/>
                    </mxGeometry>
                </mxCell>
                <mxCell id="HhYrrEAUZPunbD4YtjZk-66" value="" style="curved=1;endArrow=none;html=1;rounded=0;endFill=0;" parent="1" edge="1">
                    <mxGeometry width="50" height="50" relative="1" as="geometry">
                        <mxPoint x="245" y="510" as="sourcePoint"/>
                        <mxPoint x="265" y="510" as="targetPoint"/>
                        <Array as="points">
                            <mxPoint x="255" y="480"/>
                        </Array>
                    </mxGeometry>
                </mxCell>
                <mxCell id="HhYrrEAUZPunbD4YtjZk-67" value="" style="curved=1;endArrow=none;html=1;rounded=0;endFill=0;" parent="1" edge="1">
                    <mxGeometry width="50" height="50" relative="1" as="geometry">
                        <mxPoint x="275" y="510" as="sourcePoint"/>
                        <mxPoint x="295" y="510" as="targetPoint"/>
                        <Array as="points">
                            <mxPoint x="285" y="480"/>
                        </Array>
                    </mxGeometry>
                </mxCell>
                <mxCell id="HhYrrEAUZPunbD4YtjZk-68" value="" style="endArrow=none;html=1;rounded=0;" parent="1" edge="1">
                    <mxGeometry width="50" height="50" relative="1" as="geometry">
                        <mxPoint x="265" y="510" as="sourcePoint"/>
                        <mxPoint x="275" y="510" as="targetPoint"/>
                    </mxGeometry>
                </mxCell>
                <mxCell id="HhYrrEAUZPunbD4YtjZk-69" value="" style="endArrow=none;html=1;rounded=0;" parent="1" edge="1">
                    <mxGeometry width="50" height="50" relative="1" as="geometry">
                        <mxPoint x="295" y="509.66" as="sourcePoint"/>
                        <mxPoint x="405" y="510" as="targetPoint"/>
                    </mxGeometry>
                </mxCell>
                <mxCell id="HhYrrEAUZPunbD4YtjZk-71" value="Zero&lt;div&gt;Counter&lt;/div&gt;" style="rounded=0;whiteSpace=wrap;html=1;" parent="1" vertex="1">
                    <mxGeometry x="495" y="380" width="60" height="40" as="geometry"/>
                </mxCell>
                <mxCell id="HhYrrEAUZPunbD4YtjZk-72" value="" style="endArrow=none;html=1;rounded=0;entryX=0.5;entryY=1;entryDx=0;entryDy=0;" parent="1" target="HhYrrEAUZPunbD4YtjZk-71" edge="1">
                    <mxGeometry width="50" height="50" relative="1" as="geometry">
                        <mxPoint x="525" y="440" as="sourcePoint"/>
                        <mxPoint x="485" y="410" as="targetPoint"/>
                    </mxGeometry>
                </mxCell>
                <mxCell id="HhYrrEAUZPunbD4YtjZk-73" value="4-2 Priority&lt;div&gt;Encoder&lt;/div&gt;" style="rounded=0;whiteSpace=wrap;html=1;" parent="1" vertex="1">
                    <mxGeometry x="585" y="380" width="80" height="40" as="geometry"/>
                </mxCell>
                <mxCell id="HhYrrEAUZPunbD4YtjZk-74" value="" style="endArrow=none;html=1;rounded=0;entryX=0.5;entryY=1;entryDx=0;entryDy=0;" parent="1" target="HhYrrEAUZPunbD4YtjZk-73" edge="1">
                    <mxGeometry width="50" height="50" relative="1" as="geometry">
                        <mxPoint x="625" y="440" as="sourcePoint"/>
                        <mxPoint x="465" y="410" as="targetPoint"/>
                    </mxGeometry>
                </mxCell>
                <mxCell id="HhYrrEAUZPunbD4YtjZk-75" value="Pooria" style="rounded=0;whiteSpace=wrap;html=1;" parent="1" vertex="1">
                    <mxGeometry x="495" y="300" width="170" height="35" as="geometry"/>
                </mxCell>
                <mxCell id="HhYrrEAUZPunbD4YtjZk-76" value="FSM" style="whiteSpace=wrap;html=1;aspect=fixed;" parent="1" vertex="1">
                    <mxGeometry x="320" y="385" width="110" height="110" as="geometry"/>
                </mxCell>
                <mxCell id="HhYrrEAUZPunbD4YtjZk-77" value="" style="endArrow=none;html=1;rounded=0;exitX=0.776;exitY=0.002;exitDx=0;exitDy=0;exitPerimeter=0;" parent="1" source="HhYrrEAUZPunbD4YtjZk-76" edge="1">
                    <mxGeometry width="50" height="50" relative="1" as="geometry">
                        <mxPoint x="405" y="360" as="sourcePoint"/>
                        <mxPoint x="405" y="280" as="targetPoint"/>
                    </mxGeometry>
                </mxCell>
                <mxCell id="HhYrrEAUZPunbD4YtjZk-80" value="" style="endArrow=none;html=1;rounded=0;entryX=0.779;entryY=1.008;entryDx=0;entryDy=0;entryPerimeter=0;" parent="1" target="HhYrrEAUZPunbD4YtjZk-76" edge="1">
                    <mxGeometry width="50" height="50" relative="1" as="geometry">
                        <mxPoint x="406" y="510" as="sourcePoint"/>
                        <mxPoint x="475" y="390" as="targetPoint"/>
                    </mxGeometry>
                </mxCell>
                <mxCell id="HhYrrEAUZPunbD4YtjZk-84" value="" style="endArrow=none;html=1;rounded=0;exitX=0.75;exitY=0;exitDx=0;exitDy=0;entryX=0.25;entryY=1;entryDx=0;entryDy=0;" parent="1" source="HhYrrEAUZPunbD4YtjZk-71" target="HhYrrEAUZPunbD4YtjZk-75" edge="1">
                    <mxGeometry width="50" height="50" relative="1" as="geometry">
                        <mxPoint x="455" y="430" as="sourcePoint"/>
                        <mxPoint x="565" y="350" as="targetPoint"/>
                    </mxGeometry>
                </mxCell>
                <mxCell id="HhYrrEAUZPunbD4YtjZk-87" value="" style="endArrow=none;html=1;rounded=0;exitX=0.5;exitY=0;exitDx=0;exitDy=0;entryX=0.75;entryY=1;entryDx=0;entryDy=0;" parent="1" edge="1">
                    <mxGeometry width="50" height="50" relative="1" as="geometry">
                        <mxPoint x="647.5" y="380" as="sourcePoint"/>
                        <mxPoint x="645" y="335" as="targetPoint"/>
                    </mxGeometry>
                </mxCell>
                <mxCell id="HhYrrEAUZPunbD4YtjZk-88" value="" style="endArrow=none;html=1;rounded=0;exitX=0.5;exitY=0;exitDx=0;exitDy=0;entryX=0.75;entryY=1;entryDx=0;entryDy=0;" parent="1" edge="1">
                    <mxGeometry width="50" height="50" relative="1" as="geometry">
                        <mxPoint x="607" y="380" as="sourcePoint"/>
                        <mxPoint x="605" y="335" as="targetPoint"/>
                    </mxGeometry>
                </mxCell>
                <mxCell id="HhYrrEAUZPunbD4YtjZk-89" value="ND" style="text;html=1;align=center;verticalAlign=middle;whiteSpace=wrap;rounded=0;" parent="1" vertex="1">
                    <mxGeometry x="645" y="340" width="30" height="30" as="geometry"/>
                </mxCell>
                <mxCell id="HhYrrEAUZPunbD4YtjZk-90" value="&lt;font style=&quot;font-size: 10px;&quot;&gt;2'b&lt;/font&gt;" style="text;html=1;strokeColor=none;fillColor=none;align=center;verticalAlign=middle;whiteSpace=wrap;rounded=0;" parent="1" vertex="1">
                    <mxGeometry x="575" y="340" width="30" height="30" as="geometry"/>
                </mxCell>
                <mxCell id="HhYrrEAUZPunbD4YtjZk-91" value="&lt;font style=&quot;font-size: 10px;&quot;&gt;3'b&lt;/font&gt;" style="text;html=1;strokeColor=none;fillColor=none;align=center;verticalAlign=middle;whiteSpace=wrap;rounded=0;" parent="1" vertex="1">
                    <mxGeometry x="510" y="340" width="30" height="30" as="geometry"/>
                </mxCell>
                <mxCell id="HhYrrEAUZPunbD4YtjZk-92" value="7 Segment Display" style="rounded=0;whiteSpace=wrap;html=1;" parent="1" vertex="1">
                    <mxGeometry x="520" y="190" width="120" height="50" as="geometry"/>
                </mxCell>
                <mxCell id="HhYrrEAUZPunbD4YtjZk-93" value="" style="endArrow=none;html=1;rounded=0;exitX=0.5;exitY=0;exitDx=0;exitDy=0;entryX=0.5;entryY=1;entryDx=0;entryDy=0;" parent="1" source="HhYrrEAUZPunbD4YtjZk-75" target="HhYrrEAUZPunbD4YtjZk-92" edge="1">
                    <mxGeometry width="50" height="50" relative="1" as="geometry">
                        <mxPoint x="505" y="290" as="sourcePoint"/>
                        <mxPoint x="555" y="240" as="targetPoint"/>
                    </mxGeometry>
                </mxCell>
                <mxCell id="35" value="&lt;font style=&quot;font-size: 9px;&quot;&gt;Debouncer&lt;/font&gt;" style="rounded=0;whiteSpace=wrap;html=1;" vertex="1" parent="1">
                    <mxGeometry x="155" y="275" width="50" height="60" as="geometry"/>
                </mxCell>
            </root>
        </mxGraphModel>
    </diagram>
</mxfile>